<svg xmlns="http://www.w3.org/2000/svg" width="430" height="430" fill="none" viewBox="0 0 430 430"><path stroke="#000" stroke-linecap="round" stroke-linejoin="round" stroke-miterlimit="10" stroke-width="12" d="M215 272.822v46.945m-77.016-13.578 16.041-44.066m-83.758 4.964 30.165-35.94M20 207.185l40.6-23.435M410 207.185l-40.599-23.443m-9.668 83.345-30.166-35.942m-37.552 75.044-16.041-44.067m100.462-91.82a177 177 0 0 1-7.035 13.44m-315.84-13.44c2.16 4.593 4.51 9.079 7.04 13.448m0 0a179.1 179.1 0 0 0 39.831 47.397m0 0c15.772 13.24 33.87 23.799 53.593 30.976m0 0c19.023 6.923 39.557 10.699 60.973 10.699 21.418 0 41.953-3.777 60.976-10.7m0 0a178.1 178.1 0 0 0 53.593-30.977m0 0a179.2 179.2 0 0 0 39.834-47.403"/></svg>